<svg data-v-0dd9719b="" version="1.0" xmlns="http://www.w3.org/2000/svg"
    xmlns:xlink="http://www.w3.org/1999/xlink" width="100%" height="100%"
    viewBox="0 0 340.000000 250.000000" preserveAspectRatio="xMidYMid meet"
    color-interpolation-filters="sRGB" style="margin: auto;">
    <defs>
        <linearGradient id="gradient" x1="0%" y1="0%" x2="100%" y2="0%">
            <stop offset="0%" style="stop-color:red;stop-opacity:1" />
            <stop offset="50%" style="stop-color:blue;stop-opacity:1" />
            <stop offset="100%" style="stop-color:violet;stop-opacity:1" />
        </linearGradient>
    </defs>
    <rect data-v-0dd9719b="" x="0" y="0" width="100%" height="100%" fill="#fff" fill-opacity="0"
        class="background"></rect>
    <rect data-v-0dd9719b="" x="0" y="0" width="100%" height="100%" fill="url(#watermark)"
        fill-opacity="1" class="watermarklayer"></rect>
    <g data-v-0dd9719b="" fill="#1A1A1A" class="icon-text-wrapper icon-svg-group iconsvg"
        transform="translate(79.54500579833984,74.73143005371094)">
        <g class="iconsvg-imagesvg" transform="translate(60.454994201660156,0)">
            <g>
                <rect fill="#1A1A1A" fill-opacity="0" stroke-width="2" x="0" y="0" width="60"
                    height="58.42714135473065" class="image-rect"></rect>
                <svg x="0" y="0" width="60" height="58.42714135473065" filtersec="colorsb7102482848"
                    class="image-svg-svg primary" style="overflow: visible;">
                    <svg xmlns="http://www.w3.org/2000/svg" viewBox="0 0 53.400001525878906 52">
                        <title>a15</title>
                        <g data-name="图层 2">
                            <g data-name="Layer 1">
                                <path fill="#f7931e"
                                    d="M28.58 19.76l3.9 10.84 3.91 10.84H20.78l3.9-10.84 3.9-10.84z"></path>
                                <path fill="#ed1c24"
                                    d="M26.29 26.11l2.76 7.66 2.76 7.67H20.78l2.76-7.67 2.75-7.66z"></path>
                                <path
                                    d="M32.6 0H20.79L0 52h13.44s13.15-36.85 13.22-36.85h.07s5.44 15.06 9.32 25.92h-8.68l-1.55-4.3-1.68-4.67-1.68 4.67-1.55 4.3L17 52h36.4z"
                                    fill="url(#gradient)"></path>
                            </g>
                        </g>
                    </svg>
                </svg> <!---->
            </g>
        </g>
        <g transform="translate(0,65.42714309692383)">
            <g data-gra="path-name" fill-rule="" class="tp-name iconsvg-namesvg">
                <g transform="scale(1)">
                    <g>
                        <path
                            d="M15.27 2.95L23.78 1.24 24.07-20.6 21.69-20.88 21.69-22.98 11.51-24.12 11.61-22.6C10.66-22.98 9.56-23.21 8.51-23.21 2.24-23.21-0.48-16.6-0.48-11.51-0.48-7.75 1-3.23 4.23-1.05 5.71 1.09 7.9 2.57 10.89 2.57 12.42 2.57 13.89 2.14 15.17 1.38ZM12.03-23.59L21.22-22.55 20.93-1.52 13.32 0 13.22-1.86C11.84-0.86 10.23-0.29 8.51-0.29 3.47-0.29 0-5.28 0-11.51 0-17.7 3.47-22.74 8.51-22.74 9.8-22.74 11.04-22.4 12.13-21.79ZM12.7-11.18C12.7-11.46 12.7-11.7 12.65-11.99 12.65-14.56 11.8-16.41 10.04-16.41 8.37-16.41 7.47-13.65 7.47-10.99 7.47-8.47 8.28-5.99 9.89-5.99 11.94-5.99 12.7-8.32 12.7-11.18ZM12.03-13.51C12.23-12.7 12.23-11.84 12.23-11.18 12.23-9.85 12.03-7.14 10.51-6.56 10.37-7.33 10.32-8.13 10.32-8.61 10.32-9.85 10.7-12.99 12.03-13.51ZM37.15-24.83C37.15-27.16 36.15-28.54 34.49-29.16 33.77-31.06 32.01-31.92 29.64-31.92 27.3-31.92 23.83-31.4 23.83-27.92 23.83-25.88 24.97-24.78 26.4-24.16 26.64-23.45 27.07-22.93 27.59-22.5L24.21-22.83 25.54-0.05 27.78-0.29 27.92 2.33 35.96 1.52 37.15-19.41 34.63-19.65 34.73-21.5C36.06-21.98 37.15-22.93 37.15-24.83ZM24.74-22.31L34.25-21.36 33.11-1.28 25.97-0.57ZM24.31-27.92C24.31-29.87 25.64-31.44 29.49-31.44L29.64-31.44C33.3-31.44 34.3-29.35 34.3-27.35L34.3-27.21C34.25-25.54 33.16-24.07 30.54-24.02L30.06-24.02C25.54-24.02 24.31-26.02 24.31-27.92ZM62.55-24.64C59.27-24.64 57.56-22.36 56.65-19.74 55.27-21.79 52.99-23.31 50.42-23.31 49.38-23.31 48.38-23.17 47.43-22.64L47.47-24.36 36.2-24.02 37.29 0.81 39.53 0.48 39.67 3.19 48.95 1.81 48.95 1.43C49 0.1 49.09-1.28 49.14-2.62 49.19-3.38 49.19-5.85 49.52-8.13 49.66-9.04 49.85-9.89 50.09-10.61 50.18-8.94 50.18-7.37 50.18-6.9 50.18-4.85 50.14-2.81 49.99-0.76L49.95-0.24 52.47-0.24C52.47 0.38 52.42 1 52.37 1.62L52.33 2.14 60.94 2.14 61.03 1.76C61.17 1.09 61.22 0.43 61.22-0.24L63.88-0.19C63.79 0.48 63.65 1.05 63.5 1.52L63.27 2.14 72.64 2.38 72.73 2C73.45-0.9 73.68-4.04 73.68-7.04 73.68-11.37 73.02-18.27 68.64-21.07 67.31-23.02 64.98-24.64 62.55-24.64ZM61.55-0.71C62.08-2.28 62.55-6.47 62.55-10.13 62.55-13.46 62.12-16.36 61.08-16.36 59.6-16.36 58.99-12.84 58.7-9.56 58.7-8.51 58.41-1.62 58.18-0.71L50.47-0.71C50.57-2.09 50.66-4.47 50.66-6.9 50.66-10.89 50.33-15.03 48.95-15.03 47.28-15.03 46.62-11.23 46.38-8.04L46.28-4.99 46.09-1 37.72 0.24 36.68-23.55 47-23.88 46.95-21.74C47.76-22.4 48.85-22.83 50.18-22.83L50.42-22.83C53.51-22.6 55.56-20.98 56.8-18.6 57.65-21.64 59.27-24.16 62.46-24.16L62.55-24.16C69.12-23.64 70.83-16.22 70.83-9.42 70.83-5.9 70.4-2.57 69.88-0.48ZM62.08-10.89C62.08-7.85 62.03-4.61 61.32-1.66 61.41-3.47 61.41-5.33 61.55-7.14 61.6-7.75 61.74-9.37 62.08-10.89ZM88.48 2.95L96.99 1.24 97.28-20.6 94.9-20.88 94.9-22.98 84.72-24.12 84.82-22.6C83.86-22.98 82.77-23.21 81.72-23.21 75.44-23.21 72.73-16.6 72.73-11.51 72.73-7.75 74.21-3.23 77.44-1.05 78.92 1.09 81.1 2.57 84.1 2.57 85.62 2.57 87.1 2.14 88.38 1.38ZM85.24-23.59L94.42-22.55 94.14-1.52 86.53 0 86.43-1.86C85.05-0.86 83.44-0.29 81.72-0.29 76.68-0.29 73.21-5.28 73.21-11.51 73.21-17.7 76.68-22.74 81.72-22.74 83.01-22.74 84.24-22.4 85.34-21.79ZM85.91-11.18C85.91-11.46 85.91-11.7 85.86-11.99 85.86-14.56 85.01-16.41 83.25-16.41 81.58-16.41 80.68-13.65 80.68-10.99 80.68-8.47 81.49-5.99 83.1-5.99 85.15-5.99 85.91-8.32 85.91-11.18ZM85.24-13.51C85.43-12.7 85.43-11.84 85.43-11.18 85.43-9.85 85.24-7.14 83.72-6.56 83.58-7.33 83.53-8.13 83.53-8.61 83.53-9.85 83.91-12.99 85.24-13.51ZM117.07-8.66L113.45-8.09 121.01-21.6 117.3-21.55 118.64-23.97 98.71-23.69 98.13-15.46 100.7-15.46 100.51-13.08 103.41-13.08 97.47-5.09 96.99-0.19 99.61-0.14 99.37 2.19 120.16 2.76 119.45-6.28 117.3-5.95ZM117.26-0.1L97.52-0.67 97.94-4.9 106.08-15.89 98.66-15.94 99.13-23.21 117.83-23.5 108.5-6.85 116.64-8.09ZM132.1-24.83C132.1-27.16 131.1-28.54 129.43-29.16 128.72-31.06 126.96-31.92 124.58-31.92 122.25-31.92 118.78-31.4 118.78-27.92 118.78-25.88 119.92-24.78 121.35-24.16 121.59-23.45 122.01-22.93 122.54-22.5L119.16-22.83 120.49-0.05 122.73-0.29 122.87 2.33 130.91 1.52 132.1-19.41 129.58-19.65 129.67-21.5C131-21.98 132.1-22.93 132.1-24.83ZM119.68-22.31L129.2-21.36 128.05-1.28 120.92-0.57ZM119.25-27.92C119.25-29.87 120.59-31.44 124.44-31.44L124.58-31.44C128.25-31.44 129.24-29.35 129.24-27.35L129.24-27.21C129.2-25.54 128.1-24.07 125.49-24.02L125.01-24.02C120.49-24.02 119.25-26.02 119.25-27.92ZM145.56-8.71C145.56-6.52 145.42-2.76 144.8-0.81L144.61-0.19 147.51-0.14C147.42 0.52 147.32 1.09 147.18 1.57L146.99 2.19 155.98 2.43 156.07 2.05C156.79-0.9 157.07-4 157.07-7.04 157.07-11.08 156.41-17.41 152.27-19.98 151.03-21.88 148.79-23.45 146.42-23.45 144.89-23.45 143.51-23.02 142.42-22.12L142.42-23.36 131.1-23.02 132.24 0.76 134.48 0.48 134.62 3.14 143.9 1.86 143.9 1.43C143.99-0.81 144.09-3.04 144.18-5.33 144.28-6.85 144.85-9.32 145.51-10.8 145.56-9.85 145.56-9.04 145.56-8.71ZM145.23-0.67C145.7-2.14 146.04-5.57 146.04-8.71 146.04-12.08 145.61-15.17 144.47-15.17 142.75-15.17 141.71-10.94 141.33-7.71L141.04-0.95 132.67 0.24 131.62-22.55 141.95-22.88 141.9-20.93C142.94-22.17 144.42-22.98 146.27-22.98L146.42-22.98C152.55-22.5 154.22-15.75 154.22-9.42 154.22-5.95 153.74-2.62 153.22-0.43ZM169.11 2.9C173.67 2.9 177.81 0.57 179.38-3.95L179.48-4.38 176.72-5.57C176.81-5.8 176.91-6.09 177-6.33L177.1-6.75 173.82-8.18 180.29-8.28 180.33-8.71C180.38-9.32 180.43-9.94 180.43-10.56 180.43-14.79 178.86-17.98 176.15-19.88 174.2-22.69 170.91-24.21 166.63-24.21 159.88-24.21 156.12-18.5 156.12-12.32 156.12-8.23 157.93-3.66 161.31-1.24 163.07 1.24 165.73 2.9 169.11 2.9ZM168.11-6.04C169.82-6.14 170.58-7.14 170.58-8.28 170.58-8.56 170.53-8.85 170.44-9.13L176.53-6.47C175.2-2.52 171.68-0.14 167.16 0.05L166.73 0.05C161.35 0.05 157.02-4.9 156.64-11.27L156.6-12.32C156.6-18.41 160.31-23.36 165.68-23.69L166.63-23.74C174.15-23.74 177.57-19.03 177.57-12.94 177.57-12.32 177.53-11.75 177.48-11.13L165.21-10.94 165.21-10.51C165.21-7.94 166.11-6.04 167.97-6.04ZM170.82-13.94C170.49-16.08 169.49-17.12 168.44-17.12L167.92-17.08C166.54-16.84 165.63-15.13 165.35-13.22ZM170.11-8.13C170.01-7.18 169.25-6.56 168.2-6.52 168.11-7.04 168.06-7.56 168.06-8.09Z"
                            transform="translate(0.48000049591064453, 31.920000076293945)"></path>
                    </g> <!----> <!----> <!----> <!----> <!----> <!----> <!---->
                </g>
            </g> <!---->
        </g>
    </g>
    <defs v-gra="od"></defs>
</svg>